<?xml version="1.0" encoding="UTF-8"?>
<svg width="32px" height="32px" viewBox="0 0 32 32" version="1.1" xmlns="http://www.w3.org/2000/svg" xmlns:xlink="http://www.w3.org/1999/xlink">
    <g stroke="none" stroke-width="1" fill="none" fill-rule="evenodd">
        <g transform="translate(-32.000000, -155.000000)">
            <g transform="translate(32.000000, 155.000000)">
                <g fill="#000000" fill-opacity="0.3">
                    <circle id="Oval" cx="16" cy="16" r="16"></circle>
                </g>
                <path d="M22.0609375,22.6671875 L9.9390625,22.6671875 C8.8703125,22.6671875 8,21.796875 8,20.728125 L8,12.271875 C8,11.203125 8.8703125,10.3328125 9.9390625,10.3328125 L11.0125,10.3328125 L12.3453125,8.665625 L19.653125,8.665625 L20.9859375,10.3328125 L22.059375,10.3328125 C23.128125,10.3328125 23.9984375,11.203125 23.9984375,12.271875 L23.9984375,20.7265625 C24,21.796875 23.1296875,22.6671875 22.0609375,22.6671875 Z M16,20 C17.8375,20 19.3328125,18.50625 19.3328125,16.6671875 C19.3328125,14.828125 17.8375,13.3328125 16,13.3328125 C14.1625,13.3328125 12.6671875,14.8296875 12.6671875,16.6671875 C12.6671875,18.5046875 14.1625,20 16,20 Z M16,14.6671875 C17.103125,14.6671875 18,15.5640625 18,16.6671875 C18,17.7703125 17.103125,18.6671875 16,18.6671875 C14.896875,18.6671875 14,17.7703125 14,16.6671875 C14,15.5640625 14.896875,14.6671875 16,14.6671875 Z M20,13.665625 C20,14.2179097 20.4477153,14.665625 21,14.665625 C21.5522847,14.665625 22,14.2179097 22,13.665625 C22,13.1133403 21.5522847,12.665625 21,12.665625 C20.4477153,12.665625 20,13.1133403 20,13.665625 Z" id="合并形状" fill="#FFFFFF" fill-rule="nonzero" opacity="0.7"></path>
            </g>
        </g>
    </g>
</svg>