<?xml version="1.0" encoding="UTF-8"?>
<svg width="32px" height="32px" viewBox="0 0 32 32" version="1.1" xmlns="http://www.w3.org/2000/svg" xmlns:xlink="http://www.w3.org/1999/xlink">
    <g  stroke="none" stroke-width="1" fill="none" fill-rule="evenodd">
        <g  transform="translate(-32.000000, -344.000000)">
            <g  transform="translate(24.000000, 218.000000)">
                <g  transform="translate(8.000000, 126.000000)">
                    <g  fill="#000000" fill-opacity="0.3">
                        <circle id="Oval" cx="16" cy="16" r="16"></circle>
                    </g>
                    <rect fill="#000000" opacity="0" x="8" y="8" width="16" height="16"></rect>
                    <path d="M22.0609375,22.6671875 L9.9390625,22.6671875 C8.8703125,22.6671875 8,21.796875 8,20.728125 L8,12.271875 C8,11.203125 8.8703125,10.3328125 9.9390625,10.3328125 L11.0125,10.3328125 L12.3453125,8.665625 L19.653125,8.665625 L20.9859375,10.3328125 L22.059375,10.3328125 C23.128125,10.3328125 23.9984375,11.203125 23.9984375,12.271875 L23.9984375,20.7265625 C24,21.796875 23.1296875,22.6671875 22.0609375,22.6671875 Z M9.9390625,11.6671875 C9.6046875,11.6671875 9.3328125,11.9390625 9.3328125,12.2734375 L9.3328125,20.728125 C9.3328125,21.0625 9.6046875,21.334375 9.9390625,21.334375 L22.0609375,21.334375 C22.3953125,21.334375 22.6671875,21.0625 22.6671875,20.728125 L22.6671875,12.271875 C22.6671875,11.9375 22.3953125,11.665625 22.0609375,11.665625 L20.346875,11.665625 L19.0125,10 L12.9875,10 L11.6546875,11.6671875 L9.9390625,11.6671875 Z" id="形状" fill="#FFFFFF" fill-rule="nonzero"></path>
                    <path d="M16,20 C14.1625,20 12.6671875,18.5046875 12.6671875,16.6671875 C12.6671875,14.8296875 14.1625,13.3328125 16,13.3328125 C17.8375,13.3328125 19.3328125,14.828125 19.3328125,16.6671875 C19.3328125,18.50625 17.8375,20 16,20 Z M16,14.6671875 C14.896875,14.6671875 14,15.5640625 14,16.6671875 C14,17.7703125 14.896875,18.6671875 16,18.6671875 C17.103125,18.6671875 18,17.7703125 18,16.6671875 C18,15.5640625 17.103125,14.6671875 16,14.6671875 Z" id="形状" fill="#FFFFFF" fill-rule="nonzero"></path>
                    <path d="M20,13.3328125 C20,13.70129 20.29871,14 20.6671875,14 C21.035665,14 21.334375,13.70129 21.334375,13.3328125 C21.334375,12.964335 21.035665,12.665625 20.6671875,12.665625 C20.29871,12.665625 20,12.964335 20,13.3328125 Z" id="路径" fill="#FFFFFF"></path>
                    <path d="M22.0609375,22.6671875 L9.9390625,22.6671875 C8.8703125,22.6671875 8,21.796875 8,20.728125 L8,12.271875 C8,11.203125 8.8703125,10.3328125 9.9390625,10.3328125 L11.0125,10.3328125 L12.3453125,8.665625 L19.653125,8.665625 L20.9859375,10.3328125 L22.059375,10.3328125 C23.128125,10.3328125 23.9984375,11.203125 23.9984375,12.271875 L23.9984375,20.7265625 C24,21.796875 23.1296875,22.6671875 22.0609375,22.6671875 Z" id="合并形状" fill="#FFFFFF" fill-rule="nonzero" opacity="0.403194754"></path>
                </g>
            </g>
        </g>
    </g>
</svg>